<?xml version="1.0" encoding="UTF-8"?>
<svg xmlns="http://www.w3.org/2000/svg" xmlns:xlink="http://www.w3.org/1999/xlink" width="854" height="480" viewBox="0 0 854 480">
<defs>
<g>
<g id="glyph-0-0">
<path d="M 1.726562 -0.128906 C 2.074219 -0.128906 2.3125 -0.320312 2.441406 -0.699219 C 2.570312 -1.078125 2.632812 -1.625 2.632812 -2.339844 C 2.632812 -2.914062 2.59375 -3.371094 2.519531 -3.710938 C 2.371094 -4.34375 2.097656 -4.664062 1.699219 -4.664062 C 1.300781 -4.664062 1.027344 -4.335938 0.878906 -3.683594 C 0.800781 -3.335938 0.761719 -2.875 0.761719 -2.304688 C 0.761719 -1.773438 0.800781 -1.347656 0.882812 -1.027344 C 1.03125 -0.429688 1.3125 -0.128906 1.726562 -0.128906 Z M 1.71875 -4.851562 C 2.257812 -4.851562 2.679688 -4.570312 2.976562 -4.003906 C 3.214844 -3.542969 3.332031 -3.019531 3.332031 -2.421875 C 3.332031 -1.953125 3.261719 -1.515625 3.113281 -1.101562 C 2.839844 -0.324219 2.363281 0.0664062 1.6875 0.0664062 C 1.222656 0.0664062 0.839844 -0.144531 0.542969 -0.5625 C 0.222656 -1.011719 0.0625 -1.625 0.0625 -2.394531 C 0.0625 -3 0.171875 -3.523438 0.382812 -3.960938 C 0.671875 -4.554688 1.117188 -4.851562 1.71875 -4.851562 Z "/>
</g>
<g id="glyph-0-1">
<path d="M 1.179688 0.0859375 C 1.066406 0.0859375 0.96875 0.046875 0.890625 -0.0351562 C 0.8125 -0.113281 0.777344 -0.207031 0.777344 -0.316406 C 0.777344 -0.425781 0.816406 -0.523438 0.894531 -0.597656 C 0.972656 -0.675781 1.066406 -0.714844 1.179688 -0.714844 C 1.289062 -0.714844 1.382812 -0.675781 1.460938 -0.597656 C 1.539062 -0.519531 1.578125 -0.429688 1.578125 -0.316406 C 1.578125 -0.207031 1.539062 -0.113281 1.460938 -0.0351562 C 1.386719 0.0429688 1.289062 0.0859375 1.179688 0.0859375 Z "/>
</g>
<g id="glyph-0-2">
<path d="M 2.136719 -4.84375 C 2.144531 -4.832031 2.152344 -4.824219 2.152344 -4.820312 C 2.152344 -4.8125 2.15625 -4.800781 2.15625 -4.777344 L 2.15625 -0.53125 C 2.15625 -0.351562 2.203125 -0.234375 2.300781 -0.1875 C 2.394531 -0.136719 2.574219 -0.109375 2.839844 -0.0976562 L 2.839844 0 L 0.851562 0 L 0.851562 -0.105469 C 1.136719 -0.121094 1.320312 -0.160156 1.40625 -0.222656 C 1.492188 -0.285156 1.539062 -0.421875 1.539062 -0.636719 L 1.539062 -3.902344 C 1.539062 -4.015625 1.523438 -4.097656 1.496094 -4.15625 C 1.46875 -4.214844 1.40625 -4.246094 1.3125 -4.246094 C 1.25 -4.246094 1.171875 -4.230469 1.074219 -4.195312 C 0.976562 -4.160156 0.886719 -4.125 0.800781 -4.085938 L 0.800781 -4.1875 L 2.09375 -4.84375 Z "/>
</g>
<g id="glyph-0-3">
<path d="M 0.214844 -0.0820312 C 1.074219 -0.976562 1.660156 -1.628906 1.96875 -2.050781 C 2.277344 -2.46875 2.429688 -2.875 2.429688 -3.273438 C 2.429688 -3.621094 2.335938 -3.886719 2.148438 -4.066406 C 1.960938 -4.25 1.734375 -4.339844 1.472656 -4.339844 C 1.152344 -4.339844 0.890625 -4.222656 0.691406 -3.988281 C 0.582031 -3.859375 0.476562 -3.660156 0.375 -3.394531 L 0.222656 -3.425781 C 0.339844 -3.964844 0.539062 -4.339844 0.820312 -4.550781 C 1.101562 -4.761719 1.402344 -4.867188 1.722656 -4.867188 C 2.121094 -4.867188 2.445312 -4.742188 2.6875 -4.492188 C 2.933594 -4.242188 3.058594 -3.933594 3.058594 -3.574219 C 3.058594 -3.1875 2.925781 -2.816406 2.660156 -2.457031 C 2.394531 -2.101562 1.816406 -1.464844 0.925781 -0.550781 L 2.546875 -0.550781 C 2.773438 -0.550781 2.929688 -0.578125 3.023438 -0.632812 C 3.113281 -0.6875 3.21875 -0.816406 3.332031 -1.027344 L 3.425781 -0.984375 L 3.03125 0 L 0.214844 0 Z "/>
</g>
</g>
</defs>
<g fill="rgb(100%, 100%, 100%)" fill-opacity="1">
<use xlink:href="#glyph-0-0" x="30" y="25.416992"/>
<use xlink:href="#glyph-0-1" x="34" y="25.416992"/>
<use xlink:href="#glyph-0-2" x="36" y="25.416992"/>
<use xlink:href="#glyph-0-3" x="40" y="25.416992"/>
</g>
</svg>
